<svg width="114" height="27" viewBox="0 0 114 27" fill="none" xmlns="http://www.w3.org/2000/svg">
<path d="M47.778 4.96136H50.9653V22.0061H47.778V14.4553H40.1639V22.0061H36.9766V4.96136H40.1639V11.7743H47.778V4.96136Z" fill="white"/>
<path d="M53.2609 15.6358C53.2609 14.5044 53.4295 13.5124 53.7668 12.6598C54.1209 11.8071 54.5847 11.1021 55.1581 10.5446C55.7315 9.97066 56.3892 9.54434 57.1312 9.26559C57.8732 8.97044 58.6321 8.82287 59.4078 8.82287C61.2291 8.82287 62.6457 9.37217 63.6576 10.4708C64.6863 11.5694 65.2006 13.2091 65.2006 15.3899C65.2006 15.5539 65.1922 15.7424 65.1753 15.9556C65.1753 16.1524 65.1669 16.3327 65.15 16.4967H56.4229C56.5072 17.5297 56.8782 18.3332 57.5359 18.9071C58.2105 19.4646 59.1802 19.7433 60.445 19.7433C61.187 19.7433 61.8615 19.6777 62.4686 19.5465C63.0926 19.4154 63.5817 19.276 63.9358 19.1284L64.3405 21.5634C64.1719 21.6454 63.9358 21.7356 63.6323 21.8339C63.3456 21.9159 63.0083 21.9897 62.6204 22.0553C62.2494 22.1373 61.8447 22.2029 61.4062 22.2521C60.9677 22.3013 60.5208 22.3259 60.0655 22.3259C58.9019 22.3259 57.8901 22.1619 57.03 21.8339C56.1699 21.4896 55.4616 21.0223 54.9051 20.432C54.3486 19.8253 53.9354 19.1202 53.6656 18.3168C53.3958 17.4969 53.2609 16.6033 53.2609 15.6358ZM62.1398 14.3077C62.1398 13.8978 62.0808 13.5124 61.9627 13.1517C61.8447 12.7746 61.6676 12.4548 61.4315 12.1925C61.2123 11.9137 60.934 11.7006 60.5967 11.553C60.2763 11.389 59.8884 11.307 59.4331 11.307C58.9609 11.307 58.5478 11.3972 58.1936 11.5776C57.8395 11.7415 57.5359 11.9629 57.283 12.2417C57.0469 12.5204 56.8614 12.8401 56.7264 13.2009C56.5915 13.5616 56.4988 13.9306 56.4482 14.3077H62.1398Z" fill="white"/>
<path d="M76.2117 15.5375C76.2117 14.2749 75.9503 13.2747 75.4275 12.5368C74.9216 11.7989 74.1121 11.43 72.9991 11.43C72.4932 11.43 72.0126 11.5038 71.5572 11.6514C71.1188 11.7989 70.7646 11.9629 70.4948 12.1433V19.5465C70.714 19.5957 70.9923 19.6449 71.3296 19.6941C71.6837 19.7269 72.1053 19.7433 72.5944 19.7433C73.7243 19.7433 74.6096 19.3744 75.2504 18.6365C75.8913 17.8822 76.2117 16.8492 76.2117 15.5375ZM79.3484 15.5867C79.3484 16.6197 79.1882 17.5543 78.8678 18.3906C78.5642 19.2104 78.1173 19.9155 77.5271 20.5058C76.9537 21.0961 76.2539 21.547 75.4275 21.8585C74.6012 22.1701 73.6652 22.3259 72.6197 22.3259C71.6078 22.3259 70.6381 22.2521 69.7106 22.1045C68.8 21.9569 68.0411 21.7929 67.434 21.6126V3.41183L70.4948 2.91992V9.58533C70.8489 9.40496 71.279 9.24099 71.7849 9.09342C72.3077 8.94584 72.8811 8.87206 73.505 8.87206C74.4325 8.87206 75.2589 9.03603 75.984 9.36397C76.7261 9.67551 77.3416 10.1264 77.8306 10.7167C78.3197 11.307 78.6907 12.0203 78.9437 12.8565C79.2135 13.6764 79.3484 14.5864 79.3484 15.5867Z" fill="white"/>
<path d="M90.2688 15.5375C90.2688 14.2749 90.0074 13.2747 89.4846 12.5368C88.9787 11.7989 88.1692 11.43 87.0562 11.43C86.5503 11.43 86.0696 11.5038 85.6143 11.6514C85.1758 11.7989 84.8217 11.9629 84.5519 12.1433V19.5465C84.7711 19.5957 85.0494 19.6449 85.3866 19.6941C85.7408 19.7269 86.1624 19.7433 86.6514 19.7433C87.7813 19.7433 88.6667 19.3744 89.3075 18.6365C89.9484 17.8822 90.2688 16.8492 90.2688 15.5375ZM93.4055 15.5867C93.4055 16.6197 93.2453 17.5543 92.9249 18.3906C92.6213 19.2104 92.1744 19.9155 91.5842 20.5058C91.0108 21.0961 90.3109 21.547 89.4846 21.8585C88.6583 22.1701 87.7223 22.3259 86.6767 22.3259C85.6649 22.3259 84.6952 22.2521 83.7677 22.1045C82.857 21.9569 82.0982 21.7929 81.4911 21.6126V3.41183L84.5519 2.91992V9.58533C84.906 9.40496 85.3361 9.24099 85.842 9.09342C86.3648 8.94584 86.9381 8.87206 87.5621 8.87206C88.4896 8.87206 89.316 9.03603 90.0411 9.36397C90.7831 9.67551 91.3987 10.1264 91.8877 10.7167C92.3768 11.307 92.7478 12.0203 93.0008 12.8565C93.2706 13.6764 93.4055 14.5864 93.4055 15.5867Z" fill="white"/>
<path d="M98.6343 22.0061H95.5734V9.14261H98.6343V22.0061ZM98.9631 5.37948C98.9631 5.93698 98.7776 6.3797 98.4066 6.70764C98.0356 7.03558 97.5971 7.19956 97.0912 7.19956C96.5684 7.19956 96.1215 7.03558 95.7505 6.70764C95.3795 6.3797 95.194 5.93698 95.194 5.37948C95.194 4.80558 95.3795 4.35467 95.7505 4.02672C96.1215 3.69878 96.5684 3.53481 97.0912 3.53481C97.5971 3.53481 98.0356 3.69878 98.4066 4.02672C98.7776 4.35467 98.9631 4.80558 98.9631 5.37948Z" fill="white"/>
<path d="M113.037 22.2767C112.194 22.2767 112.624 22.1701 112.05 21.9569C111.494 21.7274 111.03 21.4158 110.659 21.0223C110.271 21.301 109.749 21.5798 109.091 21.8585C108.45 22.1373 107.674 22.2767 106.764 22.2767C105.802 22.2767 104.951 22.1209 104.209 21.8093C103.467 21.4814 102.843 21.0305 102.337 20.4566C101.831 19.8663 101.443 19.1612 101.173 18.3414C100.92 17.5215 100.794 16.6033 100.794 15.5867C100.794 14.57 100.945 13.6518 101.249 12.8319C101.569 11.9957 102.016 11.2906 102.59 10.7167C103.18 10.1264 103.888 9.67551 104.715 9.36397C105.558 9.03603 106.502 8.87206 107.548 8.87206C108.492 8.87206 109.428 8.95404 110.356 9.11801C111.283 9.26559 112.034 9.42956 112.607 9.60993V17.5543C112.607 17.997 112.607 19.181 112.607 19.4974C112.607 20.1272 112.762 21.0223 112.762 21.0223C112.762 21.0223 112.762 20.9707 112.762 21.4707L113.037 22.2767ZM107.118 19.7433C107.674 19.7433 108.172 19.6613 108.61 19.4974C109.066 19.3334 109.428 19.153 109.698 18.9563C109.597 18.4643 109.546 17.915 109.546 17.3083V11.6514C109.361 11.6186 109.099 11.5776 108.762 11.5284C108.442 11.4792 108.054 11.4546 107.598 11.4546C106.435 11.4546 105.533 11.8235 104.892 12.5614C104.251 13.2993 103.93 14.3241 103.93 15.6358C103.93 16.882 104.183 17.8822 104.689 18.6365C105.212 19.3744 106.022 19.7433 107.118 19.7433Z" fill="white"/>
<path d="M109.602 17.1523H112.597C112.622 19.1483 112.787 20.2769 113.096 22.3304H110.101C109.681 20.3336 109.656 19.1904 109.602 17.1523Z" fill="white"/>
<mask id="mask0" mask-type="alpha" maskUnits="userSpaceOnUse" x="0" y="0" width="26" height="27">
<path fill-rule="evenodd" clip-rule="evenodd" d="M0 0H11.3832V8.22692H14.5785V0H25.9617V19.1621H18.5726V22.3302H25.9617V26.2137H14.5785V15.2786H21.9676V3.88352H18.5726V12.1104H7.3891V3.88352H3.99411V15.2786H11.3832V26.2137H0V22.3302H7.3891V19.1621H0V0Z" fill="url(#paint0_linear)"/>
</mask>
<g mask="url(#mask0)">
<rect y="-0.597656" width="27" height="27.2247" fill="url(#paint1_radial)"/>
<rect y="-0.597656" width="27" height="27.2247" fill="url(#paint2_linear)"/>
</g>
<defs>
<linearGradient id="paint0_linear" x1="20.9691" y1="0.48544" x2="8.39969" y2="26.0128" gradientUnits="userSpaceOnUse">
<stop stop-color="#00E1F1"/>
<stop offset="1" stop-color="#0095FF"/>
</linearGradient>
<radialGradient id="paint1_radial" cx="0" cy="0" r="1" gradientUnits="userSpaceOnUse" gradientTransform="translate(14.0567 26.627) rotate(-72.1738) scale(35.7471 13.5763)">
<stop stop-color="white"/>
<stop offset="1" stop-color="white"/>
</radialGradient>
<linearGradient id="paint2_linear" x1="23" y1="-11.7792" x2="39.1914" y2="11.9004" gradientUnits="userSpaceOnUse">
<stop stop-color="white"/>
<stop offset="0.348958" stop-color="white" stop-opacity="0.15"/>
</linearGradient>
</defs>
</svg>
