<?xml version="1.0" encoding="utf-8"?>
<svg width="210" height="80" viewBox="0 0 210 80" fill="none" xmlns="http://www.w3.org/2000/svg">
<path fill-rule="evenodd" clip-rule="evenodd" d="M53.97 60.94C65.5515 60.94 74.94 51.5515 74.94 39.97C74.94 28.3886 65.5515 19 53.97 19C42.3886 19 33 28.3886 33 39.97C33 51.5515 42.3886 60.94 53.97 60.94ZM56.5908 55.4793C64.0294 54.2315 69.6975 47.7622 69.6975 39.9691C69.6975 32.176 64.0294 25.7068 56.5908 24.459V55.4793ZM51.3483 55.4791V51.3294H43.0935C45.3203 53.462 48.173 54.9463 51.3483 55.4791ZM51.3483 46.0869V42.5925H38.4603C38.6648 43.8105 39.0093 44.981 39.4767 46.0869H51.3483ZM51.3483 37.3501V33.8532H39.4759C39.0084 34.9599 38.6639 36.1312 38.4596 37.3501H51.3483ZM51.3483 28.6107V24.4591C48.172 24.9921 45.3186 26.4771 43.0915 28.6107H51.3483Z" fill="#4F46E5"/>
<path fill-rule="evenodd" clip-rule="evenodd" d="M87.2894 52.8766V26.3354H97.1373C99.2275 26.3354 100.986 26.6857 102.394 27.4074C103.795 28.1251 104.851 29.1197 105.548 30.3929C106.239 31.6547 106.581 33.0668 106.581 34.6212C106.581 36.1026 106.251 37.4755 105.588 38.7339L105.586 38.7366C104.914 39.9853 103.871 40.9905 102.477 41.7565L102.472 41.7588C101.062 42.5075 99.2763 42.8701 97.1373 42.8701H92.6788V52.8766H87.2894ZM100.119 31.875L100.115 31.8707C99.5014 31.2318 98.4424 30.8697 96.8439 30.8697H92.6788V38.3358H96.8439C98.4453 38.3358 99.5057 37.9847 100.119 37.3675C100.775 36.707 101.118 35.8051 101.118 34.6212C101.118 33.4099 100.773 32.5121 100.123 31.8791L100.119 31.875ZM111.178 61L115.396 51.6581H114.601L107.234 33.8679H113.088L117.958 46.1754L123.038 33.8679H128.789L116.931 61H111.178ZM129.881 52.8766V25.5969H135.27V52.8766H129.881ZM142.042 52.0553L142.04 52.054C140.593 51.2107 139.438 50.047 138.577 48.5687L138.573 48.5626C137.734 47.0518 137.319 45.3183 137.319 43.3723C137.319 41.425 137.747 39.7016 138.613 38.2136C139.473 36.7111 140.629 35.5344 142.077 34.6905L142.079 34.6892C143.554 33.8445 145.204 33.4248 147.02 33.4248C148.812 33.4248 150.438 33.8447 151.889 34.6898C153.362 35.5335 154.518 36.711 155.355 38.2159C156.221 39.7033 156.647 41.426 156.647 43.3723C156.647 45.3197 156.22 47.0542 155.355 48.5654C154.518 50.047 153.36 51.212 151.888 52.0553C150.414 52.8996 148.776 53.3197 146.983 53.3197C145.167 53.3197 143.517 52.9001 142.042 52.0553ZM149.929 39.5183L149.925 39.515C149.079 38.6407 148.116 38.2176 147.02 38.2176C145.871 38.2176 144.884 38.6439 144.042 39.5149C143.247 40.3373 142.819 41.6013 142.819 43.3723C142.819 45.1401 143.245 46.4181 144.042 47.2665C144.884 48.1131 145.86 48.5269 146.983 48.5269C148.108 48.5269 149.084 48.1126 149.927 47.2647C150.747 46.4161 151.185 45.139 151.185 43.3723C151.185 41.6036 150.746 40.341 149.929 39.5183ZM158.318 52.8766V33.8679H163.118L163.404 36.2848C163.938 35.5438 164.61 34.9267 165.417 34.4355L165.42 34.4336C166.557 33.7571 167.88 33.4248 169.376 33.4248C171.705 33.4248 173.557 34.1678 174.883 35.6852C176.205 37.1996 176.839 39.3871 176.839 42.1907V52.8766H171.449V42.6338C171.449 41.0981 171.138 39.9783 170.566 39.2251C170.014 38.4981 169.141 38.1069 167.872 38.1069C166.645 38.1069 165.651 38.5363 164.865 39.3953C164.107 40.2483 163.707 41.46 163.707 43.0769V52.8766H158.318Z" fill="black"/>
</svg>
