<svg width="106" height="57" viewBox="0 0 106 57" fill="none" xmlns="http://www.w3.org/2000/svg">
<path d="M18.0611 0.046875L0.0976562 13.4265V41.8956L9.07981 48.4805L18.0611 42L26.8219 48.4805L35.9675 42V13.2167L18.0611 0.046875Z" fill="#2C2C2C"/>
<path d="M9.40012 19.3844L3.01172 14.7122L17.9604 4.01953L33.1079 14.7855L26.7203 19.4577L17.9604 13.3639L9.40012 19.3844Z" fill="#1AE5BE"/>
<path d="M9.40012 33.3648L3.01172 28.6926L17.9604 18L33.1079 28.766L26.7203 33.4382L17.9604 27.3444L9.40012 33.3648Z" fill="url(#paint0_linear)"/>
<path d="M11.5586 38.1914V52.1976L18.0585 56.9518L24.5593 52.1976V38.1914H11.5586Z" fill="#2C2C2C"/>
<path d="M24.5593 38.1917L18.0585 42.9467L11.5586 38.1917L18.0585 33.4375L24.5593 38.1917Z" fill="#4B94CD"/>
<path d="M47.1038 26.0617C47.0729 26.0624 47.0422 26.0567 47.0136 26.045C46.9851 26.0332 46.9592 26.0157 46.9378 25.9935C46.9157 25.972 46.8982 25.9462 46.8864 25.9177C46.8747 25.8892 46.8689 25.8586 46.8695 25.8277V20.4348H45.0625C45.0317 20.4352 45.001 20.4294 44.9724 20.4177C44.9439 20.4061 44.9179 20.3889 44.8961 20.3671C44.8742 20.3453 44.857 20.3194 44.8453 20.2908C44.8337 20.2623 44.8279 20.2317 44.8282 20.2009V19.4793C44.8273 19.4474 44.833 19.4157 44.8447 19.3861C44.8564 19.3564 44.8741 19.3294 44.8965 19.3067C44.9179 19.2845 44.9438 19.2669 44.9723 19.2552C45.0009 19.2435 45.0316 19.2378 45.0625 19.2385H50.0434C50.0758 19.2371 50.1082 19.2423 50.1385 19.254C50.1688 19.2657 50.1963 19.2836 50.2193 19.3065C50.2424 19.3294 50.2603 19.3568 50.2722 19.387C50.284 19.4172 50.2894 19.4495 50.2881 19.4819V20.2035C50.2885 20.2344 50.2827 20.2651 50.2709 20.2938C50.2592 20.3224 50.2418 20.3484 50.2198 20.3701C50.1968 20.3922 50.1697 20.4095 50.1401 20.421C50.1104 20.4326 50.0787 20.4382 50.0468 20.4374H48.2451V25.8277C48.2456 25.8585 48.2399 25.889 48.2283 25.9175C48.2167 25.946 48.1995 25.9718 48.1776 25.9935C48.1548 26.0158 48.1278 26.0334 48.0981 26.0451C48.0684 26.0568 48.0366 26.0624 48.0047 26.0617H47.1038Z" fill="white"/>
<path d="M51.997 26.0615C51.9661 26.0616 51.9355 26.0556 51.907 26.0439C51.8785 26.0322 51.8526 26.015 51.8307 25.9933C51.8089 25.9716 51.7915 25.9457 51.7797 25.9173C51.7679 25.8889 51.7618 25.8584 51.7618 25.8276V19.4791C51.761 19.4472 51.7668 19.4154 51.7787 19.3858C51.7906 19.3561 51.8083 19.3291 51.8309 19.3065C51.8524 19.2844 51.8783 19.2669 51.9068 19.2552C51.9354 19.2434 51.9661 19.2377 51.997 19.2383H54.5267C55.3147 19.2383 55.9363 19.4202 56.3916 19.7838C56.847 20.1475 57.0749 20.6775 57.0755 21.3738C57.0755 21.8554 56.9568 22.255 56.7193 22.5727C56.4787 22.8927 56.1474 23.1332 55.7683 23.2632L57.194 25.749C57.2121 25.7822 57.2222 25.8192 57.2234 25.8569C57.2239 25.8843 57.2186 25.9115 57.2077 25.9367C57.1968 25.9619 57.1806 25.9844 57.1603 26.0028C57.1225 26.0402 57.0716 26.0613 57.0185 26.0615H56.1279C56.0821 26.0646 56.0361 26.0586 55.9926 26.0438C55.9491 26.029 55.909 26.0057 55.8746 25.9752C55.8212 25.9243 55.7752 25.8662 55.738 25.8026L54.4783 23.4876H53.12V25.8276C53.1215 25.8889 53.0989 25.9484 53.0569 25.9933C53.0347 26.0164 53.0078 26.0345 52.9779 26.0462C52.9481 26.058 52.9161 26.0632 52.884 26.0615H51.997ZM53.1209 22.3854H54.4982C54.8948 22.3854 55.191 22.2959 55.387 22.1169C55.583 21.938 55.6807 21.6862 55.6801 21.3617C55.6801 21.0365 55.5841 20.7813 55.3922 20.5961C55.2002 20.4108 54.902 20.319 54.4973 20.3207H53.12L53.1209 22.3854Z" fill="white"/>
<path d="M59.0586 26.0616C59.0278 26.0617 58.9973 26.0557 58.9688 26.044C58.9403 26.0323 58.9145 26.0151 58.8927 25.9933C58.8709 25.9716 58.8536 25.9458 58.8419 25.9173C58.8302 25.8889 58.8242 25.8584 58.8243 25.8277V19.4793C58.8234 19.4474 58.829 19.4157 58.8408 19.386C58.8525 19.3563 58.8702 19.3294 58.8926 19.3067C58.9141 19.2845 58.9399 19.267 58.9685 19.2553C58.9971 19.2436 59.0277 19.2379 59.0586 19.2385H63.3565C63.3889 19.2371 63.4212 19.2425 63.4515 19.2543C63.4817 19.266 63.5092 19.2839 63.5321 19.3068C63.5551 19.3296 63.5731 19.357 63.585 19.3871C63.5969 19.4173 63.6024 19.4495 63.6011 19.4819V20.1258C63.6017 20.1567 63.5958 20.1873 63.5839 20.2159C63.572 20.2444 63.5543 20.2701 63.532 20.2915C63.5092 20.3139 63.4822 20.3315 63.4525 20.3432C63.4228 20.3549 63.391 20.3605 63.3591 20.3597H60.1454V22.086H63.1438C63.2074 22.0842 63.2692 22.1067 63.3167 22.149C63.3399 22.1711 63.3581 22.198 63.3699 22.2278C63.3817 22.2576 63.3868 22.2896 63.385 22.3216V22.9258C63.3868 22.9578 63.3817 22.9898 63.3699 23.0196C63.3581 23.0494 63.3399 23.0763 63.3167 23.0984C63.2693 23.141 63.2075 23.1638 63.1438 23.1623H60.1454V24.9464H63.4369C63.4693 24.9448 63.5017 24.95 63.532 24.9617C63.5624 24.9733 63.5899 24.9912 63.6129 25.0141C63.6358 25.0371 63.6537 25.0646 63.6654 25.0948C63.6771 25.1251 63.6823 25.1574 63.6807 25.1898V25.8337C63.6812 25.8645 63.6755 25.895 63.6639 25.9235C63.6524 25.952 63.6351 25.9778 63.6133 25.9995C63.5905 26.0218 63.5634 26.0393 63.5337 26.0511C63.504 26.0628 63.4723 26.0684 63.4403 26.0676L59.0586 26.0616Z" fill="white"/>
<path d="M65.625 26.0616C65.5941 26.0622 65.5634 26.0565 65.5349 26.0448C65.5063 26.033 65.4805 26.0155 65.459 25.9934C65.437 25.9718 65.4196 25.946 65.4079 25.9175C65.3962 25.889 65.3903 25.8585 65.3907 25.8277V19.4793C65.39 19.4474 65.3956 19.4157 65.4074 19.3861C65.4191 19.3564 65.4366 19.3294 65.459 19.3067C65.4805 19.2845 65.5063 19.267 65.5349 19.2553C65.5634 19.2436 65.5941 19.2379 65.625 19.2385H69.9228C69.9552 19.2371 69.9876 19.2425 70.0178 19.2543C70.048 19.266 70.0755 19.2839 70.0985 19.3068C70.1215 19.3296 70.1395 19.357 70.1514 19.3871C70.1632 19.4173 70.1687 19.4495 70.1675 19.4819V20.1258C70.168 20.1567 70.1621 20.1873 70.1502 20.2159C70.1383 20.2444 70.1207 20.2701 70.0983 20.2915C70.0756 20.3139 70.0486 20.3315 70.0189 20.3432C69.9891 20.355 69.9574 20.3606 69.9254 20.3597H66.7118V22.086H69.711C69.7746 22.0842 69.8365 22.1067 69.8839 22.149C69.9072 22.1711 69.9253 22.198 69.9371 22.2278C69.9489 22.2576 69.9541 22.2896 69.9522 22.3216V22.9258C69.9541 22.9578 69.9489 22.9898 69.9371 23.0196C69.9253 23.0494 69.9072 23.0763 69.8839 23.0984C69.8366 23.141 69.7747 23.1639 69.711 23.1623H66.7118V24.9464H70.0032C70.0357 24.945 70.0681 24.9502 70.0984 24.9619C70.1287 24.9737 70.1562 24.9915 70.1792 25.0144C70.2022 25.0373 70.2202 25.0647 70.232 25.0949C70.2439 25.1251 70.2493 25.1574 70.2479 25.1898V25.8337C70.2485 25.8645 70.2427 25.8952 70.231 25.9237C70.2192 25.9522 70.2018 25.978 70.1796 25.9995C70.1568 26.0218 70.1298 26.0393 70.1001 26.0511C70.0704 26.0628 70.0386 26.0684 70.0067 26.0676L65.625 26.0616Z" fill="white"/>
<path d="M72.1877 26.0617C72.1262 26.0633 72.0666 26.0407 72.0217 25.9987C71.9987 25.9765 71.9806 25.9496 71.9688 25.9198C71.9571 25.89 71.9518 25.8581 71.9534 25.8261V19.4794C71.9527 19.4475 71.9584 19.4159 71.9701 19.3862C71.9818 19.3566 71.9994 19.3296 72.0217 19.3068C72.0432 19.2846 72.069 19.2672 72.0976 19.2554C72.1262 19.2437 72.1568 19.238 72.1877 19.2386H73.0765C73.1085 19.2369 73.1406 19.2421 73.1704 19.2539C73.2003 19.2656 73.2272 19.2837 73.2494 19.3068C73.2919 19.3541 73.3145 19.4159 73.3125 19.4794V21.9955H76.1942V19.4794C76.1933 19.4475 76.1989 19.4158 76.2107 19.3861C76.2224 19.3565 76.24 19.3295 76.2625 19.3068C76.284 19.2846 76.3098 19.2672 76.3384 19.2554C76.3669 19.2437 76.3976 19.238 76.4285 19.2386H77.3078C77.3402 19.2373 77.3725 19.2426 77.4028 19.2544C77.433 19.2661 77.4605 19.284 77.4834 19.3069C77.5064 19.3297 77.5244 19.3571 77.5363 19.3872C77.5482 19.4174 77.5537 19.4496 77.5524 19.482V25.8278C77.5529 25.8587 77.5469 25.8893 77.535 25.9178C77.5231 25.9463 77.5055 25.9721 77.4833 25.9935C77.4605 26.0159 77.4335 26.0335 77.4038 26.0452C77.3741 26.0569 77.3423 26.0626 77.3104 26.0617H76.4311C76.4003 26.0619 76.3698 26.0559 76.3413 26.0442C76.3128 26.0325 76.2869 26.0152 76.2651 25.9935C76.2434 25.9717 76.2261 25.9459 76.2144 25.9175C76.2027 25.889 76.1967 25.8586 76.1968 25.8278V23.2142H73.3108V25.8278C73.3123 25.8892 73.2896 25.9487 73.2477 25.9935C73.2255 26.0167 73.1985 26.0347 73.1687 26.0465C73.1388 26.0583 73.1068 26.0635 73.0748 26.0617H72.1877Z" fill="white"/>
<path d="M82.1877 26.1601C81.6745 26.1733 81.1645 26.0752 80.6929 25.8727C80.2813 25.686 79.9392 25.3747 79.715 24.9828C79.4804 24.58 79.3533 24.0811 79.3337 23.4861C79.3277 23.2064 79.3242 22.9294 79.3242 22.6566C79.3242 22.3839 79.3242 22.1042 79.3337 21.8185C79.3527 21.2275 79.483 20.7335 79.7245 20.3365C79.9586 19.9457 80.3038 19.6332 80.7162 19.4388C81.1812 19.2395 81.682 19.1367 82.1881 19.1367C82.6942 19.1367 83.195 19.2395 83.6601 19.4388C84.0745 19.6323 84.4216 19.9449 84.657 20.3365C84.8979 20.7324 85.0281 21.2264 85.0477 21.8185C85.0604 22.1062 85.0671 22.3856 85.0676 22.6566C85.0676 22.9294 85.0607 23.2064 85.0477 23.4861C85.0276 24.0834 84.9005 24.5823 84.6665 24.9828C84.4413 25.3745 84.0978 25.685 83.6852 25.8701C83.2126 26.0729 82.7019 26.1718 82.1877 26.1601ZM82.1877 25.038C82.6114 25.038 82.9555 24.9129 83.2252 24.6626C83.495 24.4122 83.6359 24.004 83.6575 23.4386C83.6707 23.1509 83.6774 22.8859 83.6774 22.6437C83.6774 22.4014 83.6707 22.1399 83.6575 21.8591C83.6581 21.54 83.5866 21.2249 83.4483 20.9372C83.336 20.7149 83.1562 20.5337 82.9347 20.4193C82.7034 20.3087 82.4493 20.2538 82.1929 20.2588C81.9393 20.2543 81.6882 20.3093 81.4597 20.4193C81.2385 20.5335 81.0593 20.7148 80.9479 20.9372C80.8084 21.2245 80.7366 21.5398 80.7378 21.8591C80.7309 22.1387 80.7274 22.4003 80.7274 22.6437C80.7274 22.8871 80.7309 23.1521 80.7378 23.4386C80.7568 24.0037 80.9009 24.4117 81.1701 24.6626C81.4472 24.9156 81.8123 25.0507 82.1877 25.0389V25.038Z" fill="white"/>
<path d="M89.5609 26.1584C89.0542 26.1704 88.5509 26.0723 88.0859 25.871C87.6764 25.6857 87.3375 25.3737 87.1193 24.9811C86.8888 24.5783 86.7735 24.0662 86.7735 23.4447V19.4742C86.7728 19.4423 86.7785 19.4105 86.7904 19.3809C86.8023 19.3512 86.8201 19.3242 86.8427 19.3016C86.864 19.2795 86.8896 19.262 86.9181 19.2502C86.9465 19.2385 86.977 19.2328 87.0078 19.2334H87.8975C87.9295 19.2315 87.9616 19.2366 87.9915 19.2484C88.0213 19.2602 88.0483 19.2784 88.0704 19.3016C88.1131 19.3488 88.136 19.4106 88.1344 19.4742V23.4447C88.1344 23.9781 88.2612 24.3732 88.5148 24.6298C88.7684 24.8865 89.1168 25.0148 89.5601 25.0148C90.0027 25.0148 90.3486 24.8865 90.5976 24.6298C90.8466 24.3732 90.9719 23.9781 90.9737 23.4447V19.4742C90.9721 19.4418 90.9773 19.4095 90.9889 19.3792C91.0006 19.349 91.0185 19.3215 91.0415 19.2985C91.0645 19.2756 91.092 19.2577 91.1223 19.2461C91.1526 19.2344 91.185 19.2292 91.2175 19.2308H92.0959C92.1279 19.229 92.16 19.2341 92.1899 19.2459C92.2197 19.2577 92.2467 19.2758 92.2688 19.299C92.3113 19.3463 92.3339 19.4081 92.3319 19.4716V23.4421C92.3319 24.0665 92.2198 24.5786 91.9956 24.9785C91.7819 25.3711 91.4468 25.6842 91.0402 25.871C90.574 26.0731 90.0691 26.1712 89.5609 26.1584Z" fill="white"/>
<path d="M96.663 26.1607C96.0577 26.1607 95.5517 26.0713 95.1447 25.8923C94.7782 25.7451 94.4576 25.5028 94.2162 25.1906C94.0141 24.9277 93.8966 24.6099 93.879 24.2791C93.8783 24.252 93.8831 24.225 93.8931 24.1998C93.9031 24.1747 93.9182 24.1518 93.9373 24.1326C93.9565 24.1133 93.9794 24.0982 94.0046 24.0881C94.0298 24.078 94.0567 24.0731 94.0839 24.0737H94.9537C95.0218 24.0687 95.0895 24.088 95.1447 24.128C95.1885 24.1657 95.2261 24.21 95.2563 24.2592C95.3039 24.396 95.3806 24.5208 95.4811 24.6252C95.6087 24.7567 95.764 24.8581 95.9358 24.9221C96.1684 25.0075 96.4153 25.0473 96.663 25.0395C97.1316 25.0395 97.4817 24.9615 97.7134 24.8056C97.8212 24.739 97.9097 24.6456 97.9703 24.5345C98.031 24.4234 98.0616 24.2985 98.0593 24.172C98.0629 24.0875 98.0481 24.0031 98.016 23.9248C97.984 23.8464 97.9353 23.7759 97.8734 23.718C97.7044 23.579 97.5104 23.4732 97.3019 23.4064C96.9675 23.2888 96.6269 23.1894 96.2817 23.1087C95.858 23.0145 95.4467 22.872 95.0557 22.684C94.7565 22.5443 94.5001 22.3274 94.313 22.0556C94.137 21.765 94.0505 21.4291 94.064 21.0898C94.0586 20.7312 94.1663 20.38 94.3718 20.0859C94.5954 19.7795 94.8993 19.5405 95.2502 19.3954C95.6816 19.2165 96.1458 19.1301 96.6128 19.1417C96.9945 19.1357 97.3745 19.194 97.7368 19.3143C98.0329 19.4113 98.3081 19.5633 98.5478 19.7623C98.7469 19.9292 98.9139 20.1311 99.0406 20.3578C99.1483 20.5472 99.2102 20.7592 99.2213 20.9767C99.2211 21.0288 99.2021 21.0791 99.1677 21.1182C99.1489 21.1395 99.1255 21.1562 99.0993 21.1671C99.0731 21.178 99.0447 21.1829 99.0164 21.1813H98.1077C98.0532 21.1806 97.9997 21.1673 97.9512 21.1424C97.8935 21.1099 97.8488 21.0583 97.825 20.9965C97.8 20.8889 97.7533 20.7875 97.6877 20.6984C97.6221 20.6094 97.5391 20.5346 97.4437 20.4787C97.1943 20.3261 96.905 20.2513 96.6128 20.2637C96.2618 20.2637 95.9788 20.3288 95.7638 20.4588C95.68 20.5148 95.6088 20.5877 95.5548 20.6726C95.5007 20.7576 95.4649 20.8529 95.4497 20.9524C95.4345 21.0519 95.4402 21.1535 95.4664 21.2507C95.4927 21.3479 95.5389 21.4386 95.6021 21.517C95.7479 21.6616 95.9256 21.77 96.1209 21.8338C96.4301 21.9473 96.7449 22.045 97.0641 22.1264C97.5301 22.2228 97.9847 22.3675 98.4207 22.558C98.7317 22.6868 98.9996 22.9015 99.1928 23.1768C99.3651 23.4628 99.4498 23.7929 99.4366 24.1263C99.4479 24.5204 99.3261 24.9068 99.0907 25.2234C98.8379 25.5413 98.5014 25.7828 98.1189 25.9208C97.6528 26.0904 97.159 26.1718 96.663 26.1607Z" fill="white"/>
<path d="M101.285 26.0616C101.254 26.0622 101.224 26.0565 101.195 26.0448C101.166 26.033 101.141 26.0155 101.119 25.9934C101.097 25.9718 101.08 25.946 101.068 25.9175C101.056 25.889 101.05 25.8585 101.051 25.8277V19.4793C101.05 19.4474 101.056 19.4157 101.068 19.3861C101.079 19.3564 101.097 19.3294 101.119 19.3067C101.141 19.2845 101.166 19.267 101.195 19.2553C101.224 19.2436 101.254 19.2379 101.285 19.2385H105.583C105.615 19.2371 105.648 19.2425 105.678 19.2543C105.708 19.266 105.736 19.2839 105.759 19.3068C105.782 19.3296 105.8 19.357 105.812 19.3871C105.823 19.4173 105.829 19.4495 105.828 19.4819V20.1258C105.828 20.1567 105.822 20.1873 105.81 20.2159C105.799 20.2444 105.781 20.2701 105.759 20.2915C105.736 20.3139 105.709 20.3315 105.679 20.3432C105.649 20.355 105.618 20.3606 105.586 20.3597H102.369V22.086H105.369C105.432 22.0842 105.494 22.1067 105.541 22.149C105.565 22.1711 105.583 22.198 105.595 22.2278C105.606 22.2576 105.612 22.2896 105.61 22.3216V22.9258C105.612 22.9578 105.606 22.9898 105.595 23.0196C105.583 23.0494 105.565 23.0763 105.541 23.0984C105.494 23.141 105.432 23.1639 105.369 23.1623H102.369V24.9464H105.661C105.693 24.945 105.726 24.9502 105.756 24.9619C105.786 24.9737 105.814 24.9915 105.837 25.0144C105.86 25.0373 105.878 25.0647 105.89 25.0949C105.901 25.1251 105.907 25.1574 105.905 25.1898V25.8337C105.906 25.8645 105.9 25.8952 105.889 25.9237C105.877 25.9522 105.859 25.978 105.837 25.9995C105.814 26.0218 105.787 26.0393 105.758 26.0511C105.728 26.0628 105.696 26.0684 105.664 26.0676L101.285 26.0616Z" fill="white"/>
<path d="M45.5977 37.7648C45.5669 37.7649 45.5363 37.7589 45.5079 37.7472C45.4794 37.7355 45.4535 37.7182 45.4317 37.6965C45.4099 37.6748 45.3927 37.6489 45.381 37.6205C45.3692 37.5921 45.3632 37.5616 45.3633 37.5309V31.1824C45.3626 31.1505 45.3682 31.1188 45.38 31.0892C45.3917 31.0595 45.4093 31.0325 45.4316 31.0098C45.4531 30.9877 45.479 30.9702 45.5075 30.9584C45.5361 30.9467 45.5668 30.941 45.5977 30.9416H49.8341C49.8665 30.9403 49.8988 30.9456 49.929 30.9574C49.9592 30.9692 49.9866 30.987 50.0095 31.0099C50.0324 31.0328 50.0503 31.0602 50.0621 31.0903C50.0739 31.1204 50.0793 31.1527 50.0779 31.185V31.8678C50.0799 31.8998 50.0748 31.9318 50.063 31.9617C50.0512 31.9915 50.033 32.0184 50.0096 32.0404C49.9626 32.0835 49.9005 32.1065 49.8367 32.1043H46.7009V33.9514H49.6404C49.6729 33.9503 49.7052 33.9559 49.7353 33.9678C49.7655 33.9797 49.7929 33.9976 49.8159 34.0205C49.8388 34.0434 49.8568 34.0708 49.8687 34.1009C49.8806 34.131 49.8862 34.1633 49.8851 34.1957V34.8784C49.8855 34.9093 49.8796 34.9399 49.8677 34.9684C49.8558 34.9969 49.8382 35.0227 49.8159 35.0441C49.7931 35.0664 49.7661 35.0839 49.7364 35.0957C49.7067 35.1074 49.6749 35.113 49.643 35.1123H46.7035V37.5291C46.704 37.5599 46.6983 37.5904 46.6867 37.6189C46.6751 37.6473 46.6579 37.6732 46.636 37.6949C46.6131 37.717 46.5861 37.7345 46.5564 37.7462C46.5267 37.7579 46.495 37.7636 46.4631 37.763L45.5977 37.7648Z" fill="white"/>
<path d="M51.9609 37.7636C51.9301 37.7637 51.8996 37.7577 51.8711 37.746C51.8426 37.7343 51.8167 37.717 51.7949 37.6953C51.7732 37.6736 51.7559 37.6477 51.7442 37.6193C51.7324 37.5909 51.7264 37.5604 51.7266 37.5296V31.1717C51.7264 31.141 51.7324 31.1105 51.7442 31.0821C51.7559 31.0537 51.7732 31.0278 51.7949 31.0061C51.8167 30.9843 51.8426 30.9671 51.8711 30.9554C51.8996 30.9437 51.9301 30.9377 51.9609 30.9378H52.8791C52.9111 30.9361 52.9432 30.9413 52.973 30.9531C53.0028 30.9648 53.0298 30.9829 53.052 31.006C53.094 31.0508 53.1167 31.1104 53.1151 31.1717V37.5296C53.1166 37.591 53.0939 37.6505 53.052 37.6954C53.0297 37.7183 53.0027 37.7363 52.9729 37.7481C52.9431 37.7598 52.9111 37.7651 52.8791 37.7636H51.9609Z" fill="white"/>
<path d="M55.3672 37.7656C55.305 37.7656 55.2455 37.741 55.2015 37.6971C55.1576 37.6533 55.1329 37.5938 55.1329 37.5317V31.1833C55.1321 31.1513 55.1378 31.1196 55.1497 31.0899C55.1616 31.0602 55.1794 31.0333 55.2021 31.0107C55.2234 30.9885 55.249 30.971 55.2775 30.9593C55.3059 30.9475 55.3364 30.9418 55.3672 30.9425H56.1194C56.1553 30.9393 56.1915 30.9432 56.226 30.954C56.2604 30.9648 56.2923 30.9823 56.32 31.0055C56.3512 31.0339 56.3802 31.0648 56.4064 31.0979L59.2198 35.4662V31.1833C59.2176 31.1198 59.2402 31.0579 59.2829 31.0107C59.305 30.9874 59.3319 30.9693 59.3618 30.9575C59.3916 30.9457 59.4237 30.9406 59.4558 30.9425H60.2763C60.3087 30.9411 60.341 30.9465 60.3711 30.9583C60.4013 30.97 60.4288 30.9879 60.4517 31.0108C60.4746 31.0337 60.4925 31.061 60.5043 31.0912C60.516 31.1213 60.5214 31.1536 60.5201 31.1859V37.524C60.5209 37.5558 60.5152 37.5875 60.5035 37.6172C60.4917 37.6468 60.4742 37.6738 60.4518 37.6966C60.4301 37.7185 60.4043 37.7359 60.3757 37.7476C60.3472 37.7593 60.3166 37.7652 60.2858 37.7648H59.5241C59.4885 37.7682 59.4526 37.7639 59.4189 37.7522C59.3851 37.7404 59.3544 37.7214 59.3287 37.6966C59.3035 37.6644 59.2744 37.6355 59.2422 37.6103L56.4393 33.3394V37.5326C56.4396 37.5634 56.4338 37.5939 56.4221 37.6224C56.4103 37.6509 56.3929 37.6767 56.371 37.6983C56.3481 37.7206 56.3211 37.7381 56.2914 37.7498C56.2617 37.7615 56.23 37.7672 56.198 37.7665L55.3672 37.7656Z" fill="white"/>
<path d="M62.1081 37.764C62.055 37.7636 62.0042 37.7425 61.9664 37.7053C61.9458 37.687 61.9294 37.6645 61.9184 37.6393C61.9074 37.6142 61.9019 37.5869 61.9024 37.5594C61.9033 37.5297 61.9098 37.5005 61.9214 37.4731L64.2757 31.1834C64.2962 31.1164 64.3351 31.0566 64.3881 31.0107C64.4532 30.9592 64.5351 30.9333 64.618 30.9382H65.6824C65.7638 30.9327 65.8443 30.9587 65.9072 31.0107C65.9583 31.059 65.9981 31.118 66.0239 31.1834L68.3781 37.4731C68.3845 37.5014 68.388 37.5304 68.3885 37.5594C68.3891 37.5864 68.3842 37.6133 68.3741 37.6384C68.364 37.6635 68.3489 37.6862 68.3297 37.7053C68.312 37.7237 68.2908 37.7384 68.2674 37.7484C68.2439 37.7585 68.2187 37.7638 68.1931 37.764H67.3432C67.2707 37.7701 67.1986 37.7474 67.1426 37.701C67.1047 37.6673 67.0751 37.6254 67.0562 37.5784L66.5971 36.389H63.6964L63.2373 37.5784C63.2181 37.6252 63.1885 37.6671 63.1508 37.701C63.0948 37.7474 63.0228 37.7701 62.9503 37.764H62.1081ZM64.0414 35.2678H66.259L65.1454 32.2545L64.0414 35.2678Z" fill="white"/>
<path d="M70.0195 37.7656C69.9574 37.7656 69.8978 37.741 69.8539 37.6971C69.8099 37.6533 69.7852 37.5938 69.7852 37.5317V31.1833C69.7844 31.1513 69.7902 31.1196 69.802 31.0899C69.8139 31.0602 69.8317 31.0333 69.8544 31.0107C69.8757 30.9885 69.9014 30.971 69.9298 30.9593C69.9582 30.9475 69.9888 30.9418 70.0195 30.9425H70.7717C70.8077 30.9393 70.8439 30.9432 70.8783 30.954C70.9127 30.9648 70.9447 30.9823 70.9723 31.0055C71.0036 31.0339 71.0325 31.0648 71.0588 31.0979L73.8721 35.4662V31.1833C73.8699 31.1198 73.8926 31.0579 73.9352 31.0107C73.9574 30.9875 73.9843 30.9693 74.0142 30.9576C74.044 30.9458 74.0761 30.9407 74.1081 30.9425H74.9286C74.961 30.9411 74.9933 30.9465 75.0235 30.9583C75.0537 30.97 75.0811 30.9879 75.104 31.0108C75.1269 31.0337 75.1448 31.061 75.1566 31.0912C75.1684 31.1213 75.1738 31.1536 75.1724 31.1859V37.524C75.1732 37.5558 75.1676 37.5875 75.1558 37.6172C75.1441 37.6468 75.1265 37.6738 75.1041 37.6966C75.0826 37.7186 75.0567 37.736 75.0282 37.7477C74.9996 37.7595 74.969 37.7653 74.9381 37.7648H74.1764C74.1409 37.7682 74.105 37.7639 74.0712 37.7522C74.0375 37.7404 74.0067 37.7214 73.981 37.6966C73.9558 37.6644 73.9268 37.6355 73.8946 37.6103L71.0916 33.3394V37.5326C71.092 37.5634 71.0861 37.5939 71.0744 37.6224C71.0627 37.6509 71.0453 37.6767 71.0233 37.6983C71.0005 37.7206 70.9734 37.7381 70.9437 37.7498C70.914 37.7615 70.8823 37.7672 70.8504 37.7665L70.0195 37.7656Z" fill="white"/>
<path d="M79.8153 37.8599C79.2095 37.8599 78.6965 37.7543 78.2763 37.5431C77.8706 37.3443 77.535 37.027 77.314 36.6334C77.0807 36.1959 76.9537 35.7098 76.9431 35.2144C76.9368 34.9474 76.9336 34.6614 76.9336 34.3564C76.9336 34.0514 76.9368 33.7588 76.9431 33.4786C76.955 32.9843 77.0839 32.4998 77.3192 32.0647C77.542 31.6706 77.8789 31.3528 78.2858 31.1533C78.706 30.9421 79.2158 30.8365 79.8153 30.8365C80.2191 30.8296 80.6214 30.8879 81.0067 31.0091C81.3335 31.113 81.6381 31.2766 81.9049 31.4916C82.1456 31.6875 82.3421 31.932 82.4816 32.2089C82.6187 32.4849 82.692 32.7881 82.696 33.0962C82.6998 33.123 82.6969 33.1504 82.6875 33.1758C82.6782 33.2013 82.6627 33.224 82.6424 33.2421C82.6016 33.2805 82.5473 33.3016 82.4911 33.3008H81.5634C81.5015 33.3025 81.4406 33.2837 81.3905 33.2473C81.3388 33.1998 81.3046 33.1362 81.2937 33.0669C81.1888 32.6376 81.0095 32.345 80.7559 32.189C80.4672 32.0236 80.1376 31.9425 79.8049 31.9551C79.3674 31.9551 79.0198 32.0768 78.7596 32.3202C78.4994 32.5636 78.3584 32.9659 78.3385 33.5286C78.3195 34.0615 78.3195 34.6081 78.3385 35.1686C78.3576 35.7291 78.4979 36.1319 78.7596 36.377C79.019 36.6204 79.3648 36.7421 79.8049 36.7421C80.1382 36.7551 80.4682 36.6724 80.7559 36.5039C81.0101 36.3439 81.1894 36.0531 81.2937 35.6313C81.3022 35.5597 81.3366 35.4937 81.3905 35.4457C81.4419 35.4124 81.5022 35.3956 81.5634 35.3973H82.4911C82.5472 35.3962 82.6015 35.417 82.6424 35.4552C82.6628 35.4734 82.6783 35.4963 82.6876 35.5218C82.697 35.5474 82.6999 35.5749 82.696 35.6019C82.6919 35.91 82.6186 36.2132 82.4816 36.4892C82.3418 36.7657 82.1453 37.0098 81.9049 37.2056C81.6381 37.421 81.3335 37.5849 81.0067 37.689C80.6212 37.8093 80.219 37.867 79.8153 37.8599Z" fill="white"/>
<path d="M84.582 37.7648C84.5512 37.7649 84.5207 37.7589 84.4922 37.7472C84.4637 37.7355 84.4379 37.7183 84.4161 37.6965C84.3943 37.6748 84.3771 37.6489 84.3653 37.6205C84.3536 37.5921 84.3476 37.5616 84.3477 37.5309V31.1824C84.347 31.1505 84.3526 31.1188 84.3643 31.0892C84.3761 31.0595 84.3936 31.0325 84.416 31.0098C84.4375 30.9877 84.4634 30.9702 84.4919 30.9584C84.5205 30.9467 84.5511 30.941 84.582 30.9416H88.8816C88.914 30.9403 88.9463 30.9456 88.9766 30.9574C89.0068 30.9691 89.0343 30.987 89.0572 31.0099C89.0802 31.0327 89.0982 31.0601 89.1101 31.0902C89.122 31.1204 89.1275 31.1526 89.1262 31.185V31.8289C89.1267 31.8598 89.1207 31.8904 89.1088 31.9189C89.0969 31.9474 89.0793 31.9732 89.0571 31.9946C89.0343 32.0169 89.0072 32.0345 88.9775 32.0462C88.9478 32.0579 88.9161 32.0635 88.8842 32.0628H85.6714V33.7891H88.6698C88.7333 33.7873 88.7952 33.8098 88.8427 33.8521C88.8659 33.8742 88.8841 33.9011 88.8959 33.9309C88.9076 33.9607 88.9128 33.9928 88.911 34.0248V34.629C88.9128 34.661 88.9076 34.693 88.8959 34.7228C88.8841 34.7526 88.8659 34.7795 88.8427 34.8016C88.7952 34.8439 88.7333 34.8664 88.6698 34.8646H85.6714V36.6496H88.9628C88.9948 36.6488 89.0265 36.6544 89.0563 36.6661C89.086 36.6778 89.113 36.6954 89.1358 36.7178C89.1583 36.7404 89.176 36.7674 89.1877 36.7971C89.1995 36.8267 89.205 36.8585 89.2041 36.8904V37.5343C89.2046 37.5651 89.1989 37.5957 89.1871 37.6242C89.1754 37.6527 89.1579 37.6785 89.1358 37.7C89.1129 37.7223 89.0858 37.7397 89.0561 37.7514C89.0265 37.7631 88.9947 37.7688 88.9628 37.7682L84.582 37.7648Z" fill="white"/>
<defs>
<linearGradient id="paint0_linear" x1="18.0598" y1="33.4382" x2="18.0598" y2="18" gradientUnits="userSpaceOnUse">
<stop stop-color="#4B94CD"/>
<stop offset="1" stop-color="#1AE5BE"/>
</linearGradient>
</defs>
</svg>
