<svg width="97" height="31" viewBox="0 0 97 31" fill="none" xmlns="http://www.w3.org/2000/svg">
<path d="M38.21 9.14107H43.3665V26.3296H48.3168V9.14107H53.4734V4.80957H38.21V9.14107ZM55.1922 4.87833V26.3983H60.1425V17.8728L66.7429 26.3296H72.9994L65.574 17.4603C68.2554 16.6353 70.043 14.4352 70.043 11.2037C70.043 7.0097 67.0179 4.80957 62.9614 4.80957H55.1922V4.87833ZM60.1425 14.3664V8.72854H60.6925C62.5489 8.72854 64.8177 8.86605 64.8177 11.5475C64.8177 14.2289 62.6176 14.3664 60.6925 14.3664H60.1425ZM91.9755 26.3296H96.9258L95.0007 4.80957H89.7754L84.9626 17.1853L80.1499 4.80957H74.9246L72.8619 26.3296H77.8122L78.8435 13.6101H78.981L83.45 26.2608H86.3377L90.8067 13.6101H90.9442L91.9755 26.3296Z" fill="white"/>
<path d="M18.27 28.2083C18.27 26.9708 17.3762 25.9395 16.2074 25.7332V19.0641C16.8949 18.9953 17.4449 18.7203 17.995 18.3078L23.2202 23.5331C22.8077 24.2206 22.8765 25.1832 23.4953 25.7332C24.1828 26.4207 25.3516 26.4207 26.0392 25.7332C26.7267 25.0457 26.7267 23.8768 26.0392 23.1893C25.4204 22.5705 24.5266 22.5018 23.839 22.9143L18.6137 17.689C19.0263 17.2077 19.3013 16.5889 19.37 15.9014H26.0392C26.2454 17.0702 27.2767 17.964 28.5143 17.964C29.8894 17.964 30.9894 16.864 30.9894 15.4889C30.9894 14.1138 29.7519 13.1512 28.3768 13.1512C27.1392 13.1512 26.1079 14.045 25.9017 15.2139H19.2325C19.1638 14.5263 18.8888 13.9075 18.4762 13.4263L23.7015 8.20101C24.3891 8.61353 25.3516 8.54478 25.9017 7.92599C26.5892 7.23845 26.5892 6.06964 25.9017 5.3821C25.2141 4.69456 24.0453 4.69456 23.3578 5.3821C22.739 6.00089 22.6702 6.89468 23.0827 7.58222L17.995 12.8762C17.5137 12.4637 16.8949 12.1887 16.2074 12.1199V5.51961C17.3762 5.31335 18.27 4.28204 18.27 3.04447C18.27 1.66939 17.1699 0.569336 15.7948 0.569336C14.4198 0.569336 13.3197 1.66939 13.3197 3.04447C13.3197 4.28204 14.2135 5.31335 15.3823 5.51961V12.1199C14.6948 12.1887 14.076 12.4637 13.5947 12.8762L8.43813 7.71973C8.85066 7.03219 8.7819 6.06964 8.16312 5.51961C7.47558 4.83207 6.30676 4.83207 5.61923 5.51961C4.93169 6.20715 4.93169 7.37596 5.61923 8.0635C6.23801 8.68228 7.13181 8.75104 7.81935 8.33852L12.9759 13.495C12.5634 13.9763 12.2884 14.5951 12.2196 15.2826H5.61923C5.41296 14.1138 4.38166 13.22 3.14409 13.22C1.76901 13.22 0.668945 14.3201 0.668945 15.6951C0.668945 17.0702 1.76901 18.1703 3.14409 18.1703C4.38166 18.1703 5.41296 17.2765 5.61923 16.1077H12.2196C12.2884 16.7952 12.5634 17.414 12.9759 17.8953L7.81935 23.0518C7.13181 22.6393 6.16926 22.708 5.61923 23.3268C4.93169 24.0143 4.93169 25.1832 5.61923 25.8707C6.30676 26.5582 7.47558 26.5582 8.16312 25.8707C8.7819 25.2519 8.85066 24.3581 8.43813 23.6706L13.6635 18.4453C14.1447 18.8578 14.7635 19.1328 15.4511 19.2016V25.8707C14.2823 26.077 13.3885 27.1083 13.3885 28.3458C13.3885 29.7209 14.4885 30.821 15.8636 30.821C17.1699 30.7522 18.27 29.5834 18.27 28.2083Z" fill="white"/>
</svg>
