<svg version="1.1" id="Layer_1" xmlns="http://www.w3.org/2000/svg" xmlns:xlink="http://www.w3.org/1999/xlink" x="0px" y="0px"
	 width="100%" viewBox="0 0 2400 1260" enable-background="new 0 0 2400 1260" xml:space="preserve">
<path fill="#FFFBF3" opacity="1.000000" stroke="none" 
	d="
M2278.000000,1261.000000 
	C1518.666626,1261.000000 759.833313,1261.000000 1.000000,1261.000000 
	C1.000000,841.000000 1.000000,421.000000 1.000000,1.000000 
	C801.000000,1.000000 1601.000000,1.000000 2401.000000,1.000000 
	C2401.000000,421.000000 2401.000000,841.000000 2401.000000,1261.000000 
	C2360.166748,1261.000000 2319.333252,1261.000000 2278.000000,1261.000000 
M547.309143,662.148499 
	C565.307190,728.938538 622.917847,769.300598 691.374451,763.080750 
	C754.801392,757.317871 807.519714,701.653748 809.853333,637.757812 
	C811.396790,595.499695 796.614014,559.868286 765.347473,531.362793 
	C711.266785,482.057739 623.861816,487.580780 576.453857,543.340820 
	C547.211548,577.734863 537.884766,617.280396 547.309143,662.148499 
M889.510986,660.019470 
	C892.961243,667.567688 897.350281,674.843140 899.641541,682.728149 
	C903.071106,694.529846 909.905029,698.668884 921.763672,696.723877 
	C925.050598,696.184753 926.760864,695.321533 927.988098,692.417358 
	C930.571106,686.305054 933.354187,680.276428 936.101868,674.234619 
	C940.094543,665.455322 944.128418,656.694763 948.490295,647.171814 
	C954.219360,659.716858 960.362244,671.046326 964.585449,683.051086 
	C968.317932,693.661133 973.866577,699.037415 985.356323,696.526428 
	C985.515381,696.491760 985.694763,696.492798 985.854309,696.526367 
	C989.849304,697.368286 991.635986,695.381531 993.226990,691.845215 
	C1008.818359,657.190186 1024.602905,622.622131 1040.323242,588.025085 
	C1044.201904,579.488647 1048.046631,570.936707 1052.085571,561.996521 
	C1043.552734,561.996521 1035.723022,562.139832 1027.903442,561.922974 
	C1024.945679,561.841003 1023.584167,562.803284 1022.426025,565.544800 
	C1012.412964,589.247498 1002.218567,612.873474 992.084961,636.525208 
	C988.523193,644.838440 984.980347,653.159668 980.946838,662.606262 
	C977.981812,655.679260 975.515442,649.966492 973.087830,644.237305 
	C962.012451,618.099548 950.979126,591.943787 939.801086,565.850037 
	C939.144531,564.317566 937.393677,562.219910 936.083008,562.169128 
	C927.519348,561.837769 918.936646,561.998718 909.939758,561.998718 
	C910.562622,563.636353 910.908081,564.723267 911.377930,565.753540 
	C919.164734,582.827515 927.048889,599.858215 934.654297,617.012512 
	C935.525818,618.978271 935.587708,621.920288 934.784912,623.908997 
	C930.183167,635.309021 925.212524,646.560242 920.353943,657.856323 
	C919.086121,660.803711 917.771301,663.730835 916.073303,667.586365 
	C914.976013,665.075134 914.300049,663.623840 913.700378,662.141663 
	C900.749817,630.132202 887.837524,598.106995 874.777710,566.142151 
	C874.106323,564.498962 872.232483,562.242920 870.834839,562.181580 
	C862.385498,561.811340 853.911743,561.997375 844.927917,561.997375 
	C859.793884,594.730286 874.469055,627.043030 889.510986,660.019470 
M1858.003296,690.373840 
	C1858.003296,647.996704 1858.003296,605.619629 1858.003296,563.348511 
	C1849.523926,563.348511 1841.778809,563.348511 1833.283936,563.348511 
	C1833.283936,578.209717 1833.283936,592.797180 1833.283936,608.228699 
	C1832.163452,607.035889 1831.762573,606.730042 1831.515869,606.329224 
	C1817.175659,583.028320 1783.318237,583.592896 1765.920288,601.512634 
	C1755.745239,611.992737 1751.424683,624.798401 1750.539673,638.932678 
	C1749.457886,656.208923 1752.483765,672.413696 1764.317627,685.984070 
	C1781.802124,706.034119 1817.438232,706.845276 1832.049927,681.888245 
	C1832.439209,681.223267 1832.452026,680.337952 1832.640381,679.555420 
	C1833.142456,679.959656 1833.644531,680.363953 1834.146606,680.768188 
	C1834.146606,686.185242 1834.146606,691.602356 1834.146606,697.057251 
	C1842.227783,697.057251 1849.989502,697.057251 1858.003296,697.057251 
	C1858.003296,694.977295 1858.003296,693.155212 1858.003296,690.373840 
M1135.716309,645.500061 
	C1135.494385,636.350525 1135.776489,627.153259 1134.916138,618.064148 
	C1133.953491,607.894897 1128.964233,599.395996 1119.643188,594.888062 
	C1099.352295,585.074707 1078.715210,585.322449 1058.765015,595.804749 
	C1048.026001,601.447266 1041.078125,615.635498 1042.681885,625.470703 
	C1050.935791,625.470703 1059.168823,625.470703 1066.218262,625.470703 
	C1068.717896,620.984436 1070.173950,616.739563 1072.952881,613.706909 
	C1079.773926,606.263000 1097.977417,605.355225 1105.994873,611.506653 
	C1110.280273,614.794678 1112.269775,620.290894 1110.735107,625.305420 
	C1109.156616,630.462830 1105.028076,632.437317 1100.106445,632.949280 
	C1097.136353,633.258240 1094.111206,632.992798 1091.122681,633.178040 
	C1081.843262,633.753296 1072.400513,633.537231 1063.335083,635.270081 
	C1051.351196,637.560913 1042.151978,644.505798 1039.091064,656.971802 
	C1035.940674,669.801819 1037.641235,681.852600 1047.880859,691.435913 
	C1064.354614,706.853699 1096.718994,702.520813 1108.609619,683.360657 
	C1109.506470,681.915405 1110.400513,680.468262 1111.692261,678.381592 
	C1112.529663,690.033447 1115.173096,694.898926 1123.086304,696.203674 
	C1130.792358,697.474304 1138.768677,697.105835 1146.493896,697.451172 
	C1146.493896,690.159302 1146.493896,683.909119 1146.493896,677.583130 
	C1145.517944,677.456543 1144.875610,677.324768 1144.228760,677.296753 
	C1136.382935,676.956543 1135.733032,676.298523 1135.719116,668.487183 
	C1135.706055,661.158142 1135.716309,653.829163 1135.716309,645.500061 
M1286.632690,680.699707 
	C1266.117310,683.417603 1251.160400,670.414551 1253.410156,651.203979 
	C1279.046265,651.203979 1304.753540,651.203979 1330.979492,651.203979 
	C1330.628906,643.992432 1330.746460,637.302551 1329.901123,630.736694 
	C1327.420776,611.473694 1317.736694,597.484497 1298.751831,591.361450 
	C1293.138794,589.551086 1287.040161,588.856567 1281.111572,588.483521 
	C1256.865479,586.958069 1235.947021,601.008179 1229.692139,624.101196 
	C1227.309082,632.899292 1226.643799,642.570190 1227.284424,651.696655 
	C1228.706665,671.959290 1237.489136,688.541199 1257.282349,696.266479 
	C1277.817993,704.281555 1297.844238,702.523743 1315.551392,688.202942 
	C1322.780884,682.356018 1327.115845,674.494263 1329.147095,664.924927 
	C1321.220215,664.924927 1313.902100,664.808472 1306.594971,665.038696 
	C1305.365479,665.077454 1303.651855,666.345520 1303.067017,667.502930 
	C1299.711304,674.141846 1294.629028,678.517029 1286.632690,680.699707 
M1732.303833,613.173950 
	C1728.758545,608.623901 1725.872192,603.288391 1721.551025,599.663025 
	C1705.016479,585.790833 1676.385254,584.471497 1657.797363,596.223083 
	C1645.230347,604.168152 1638.096680,615.886292 1635.619507,630.298706 
	C1632.345215,649.348267 1634.131348,667.732056 1646.889160,683.213074 
	C1664.265381,704.298828 1702.214478,706.781677 1722.781860,688.670898 
	C1729.904541,682.398804 1734.798584,674.768677 1736.707520,664.922668 
	C1729.326172,664.922668 1722.340454,665.069336 1715.366333,664.849670 
	C1712.626831,664.763428 1711.275635,665.628540 1710.191040,668.136108 
	C1705.121582,679.855591 1688.347290,684.647766 1676.656860,679.416565 
	C1664.588257,674.016052 1661.320923,663.752808 1660.212036,651.366699 
	C1686.334839,651.366699 1712.072876,651.366699 1738.016724,651.366699 
	C1738.465454,638.184082 1738.541260,625.589783 1732.303833,613.173950 
M1593.062012,661.500000 
	C1593.062012,673.294739 1593.062012,685.089417 1593.062012,697.085327 
	C1601.383057,697.085327 1609.316040,697.085327 1617.077881,697.085327 
	C1617.077881,671.749084 1618.046021,646.606750 1616.798584,621.574768 
	C1615.611694,597.758484 1594.089355,583.659729 1570.891235,589.589355 
	C1561.417480,592.010925 1554.549927,597.812744 1548.576050,605.665039 
	C1548.576050,591.525513 1548.576050,577.385986 1548.576050,563.062195 
	C1544.029907,563.062195 1540.037720,563.062195 1536.045532,563.062195 
	C1532.136963,563.062195 1528.228271,563.062195 1524.501709,563.062195 
	C1524.501709,608.243347 1524.501709,652.616028 1524.501709,697.012817 
	C1532.769897,697.012817 1540.688110,697.012817 1548.844727,697.012817 
	C1548.844727,676.553345 1548.638306,656.403931 1548.986450,636.264099 
	C1549.076050,631.081177 1550.160034,625.624756 1552.101440,620.825745 
	C1555.979736,611.239746 1565.684692,606.612244 1576.757080,608.049194 
	C1585.273926,609.154419 1590.668457,615.054199 1592.507690,625.555725 
	C1592.963989,628.161255 1593.020386,630.858643 1593.038574,633.515259 
	C1593.100220,642.509827 1593.062012,651.505005 1593.062012,661.500000 
M1455.538818,652.525818 
	C1459.699829,652.656006 1463.876953,652.599365 1468.018311,652.957153 
	C1475.528564,653.605713 1480.207520,657.390686 1481.017334,663.123230 
	C1482.104492,670.818909 1478.641968,677.316711 1471.199951,679.518677 
	C1466.687378,680.853821 1461.693237,681.210693 1456.958252,681.008118 
	C1447.307007,680.595215 1441.757080,675.415100 1439.719727,665.992371 
	C1439.451904,664.753723 1438.998169,663.555237 1438.681641,662.507446 
	C1430.353638,662.507446 1422.392944,662.507446 1414.466431,662.507446 
	C1412.848755,674.801392 1420.972778,689.008484 1433.546875,694.953857 
	C1450.549927,702.993347 1468.177246,703.053223 1485.452393,696.359009 
	C1501.894165,689.987671 1509.566406,675.613647 1506.843994,658.905029 
	C1504.510620,644.585388 1493.034058,635.191040 1475.663330,633.825928 
	C1468.204102,633.239685 1460.677124,633.545227 1453.208130,633.041504 
	C1446.504028,632.589417 1442.620483,629.203796 1441.768188,623.895569 
	C1440.764526,617.645630 1443.551758,612.591614 1449.551392,609.783264 
	C1463.882568,603.074890 1477.274536,609.664490 1480.498047,624.992859 
	C1480.556030,625.268372 1480.910645,625.481567 1480.963257,625.540405 
	C1489.195801,625.540405 1497.254150,625.540405 1505.431519,625.540405 
	C1505.042480,615.807739 1502.046875,607.592529 1495.381104,600.869507 
	C1479.861328,585.216614 1443.546143,583.986450 1426.926636,598.556274 
	C1409.394409,613.926270 1413.003906,641.504578 1434.019165,649.355469 
	C1440.373901,651.729370 1447.686035,651.540588 1455.538818,652.525818 
M1151.576904,611.525818 
	C1155.347168,611.525818 1159.117554,611.525818 1163.120117,611.525818 
	C1163.193481,613.081909 1163.280640,614.055969 1163.279419,615.029968 
	C1163.256836,633.022400 1163.305542,651.015381 1163.167114,669.007019 
	C1163.053711,683.756836 1169.345093,694.237854 1182.139771,696.168518 
	C1194.660156,698.057861 1207.527710,697.646912 1220.494751,698.257507 
	C1220.494751,690.789917 1220.494751,684.532410 1220.494751,677.812988 
	C1213.842529,677.812988 1207.370605,677.940918 1200.905762,677.782410 
	C1191.644409,677.555420 1188.034912,673.772705 1188.015015,664.457397 
	C1187.980103,648.130310 1187.997925,631.803040 1188.019775,615.475891 
	C1188.021362,614.213501 1188.226685,612.951294 1188.362305,611.403992 
	C1198.992798,611.403992 1209.288696,611.403992 1219.774048,611.403992 
	C1219.774048,604.714539 1219.774048,598.346191 1219.774048,591.511963 
	C1209.078979,591.511963 1198.681396,591.511963 1187.992432,591.511963 
	C1187.992432,581.750244 1187.992432,572.452209 1187.992432,563.190430 
	C1179.621338,563.190430 1171.562866,563.190430 1163.074707,563.190430 
	C1163.074707,572.831848 1163.074707,582.105957 1163.074707,591.728577 
	C1156.179688,591.728577 1149.721313,591.728577 1143.095703,591.728577 
	C1143.095703,598.388611 1143.095703,604.683167 1143.095703,611.525696 
	C1145.691406,611.525696 1148.151001,611.525696 1151.576904,611.525818 
M1371.517334,594.122437 
	C1370.764893,593.312195 1370.030029,591.818115 1369.257568,591.798340 
	C1362.149048,591.617371 1355.034180,591.691711 1347.718506,591.691711 
	C1347.718506,627.077393 1347.718506,661.945312 1347.718506,697.066162 
	C1355.875732,697.066162 1363.793579,697.066162 1372.003296,697.066162 
	C1372.003296,695.236206 1372.003296,693.585083 1372.003296,691.933960 
	C1372.003418,673.123413 1371.948730,654.312683 1372.019653,635.502380 
	C1372.084229,618.332520 1378.903564,611.553833 1395.918701,611.523254 
	C1399.873779,611.516113 1403.828735,611.522217 1407.898926,611.522217 
	C1407.898926,604.674988 1407.898926,598.385986 1407.898926,591.992920 
	C1393.535645,590.802612 1379.963623,591.103210 1372.407593,607.046387 
	C1372.112183,606.651245 1371.816895,606.256042 1371.521484,605.860901 
	C1371.521484,602.242126 1371.521484,598.623413 1371.517334,594.122437 
z"/>
<path fill="#285DFF" opacity="1.000000" stroke="none" 
	d="
M547.217407,661.744385 
	C537.884766,617.280396 547.211548,577.734863 576.453857,543.340820 
	C623.861816,487.580780 711.266785,482.057739 765.347473,531.362793 
	C796.614014,559.868286 811.396790,595.499695 809.853333,637.757812 
	C807.519714,701.653748 754.801392,757.317871 691.374451,763.080750 
	C622.917847,769.300598 565.307190,728.938538 547.217407,661.744385 
M627.348022,532.798950 
	C608.767273,540.508423 582.261597,567.192017 580.113403,579.323914 
	C590.352905,577.886780 600.980286,576.395264 610.954468,574.995361 
	C616.533691,561.213440 622.249512,547.094116 628.426636,532.876465 
	C628.366699,532.684631 628.306763,532.492798 628.246765,532.300964 
	C628.187500,532.553101 628.128235,532.805176 627.348022,532.798950 
M742.159607,571.413696 
	C750.968384,605.081421 751.438599,639.093506 746.146729,673.259277 
	C763.932434,679.265625 781.146240,669.852966 784.796509,652.322266 
	C794.266357,606.842224 772.541077,558.852173 731.956909,535.635193 
	C730.804443,534.975891 729.567810,534.463684 728.905457,534.142395 
	C733.284485,546.325745 737.648132,558.466309 742.159607,571.413696 
M607.940674,663.528931 
	C605.069275,642.189941 605.283264,620.822510 607.673340,599.481323 
	C592.880859,597.504150 573.614990,607.580872 567.517456,620.335449 
	C567.109802,621.188110 567.075562,622.264893 567.041016,623.243652 
	C565.459473,668.092285 583.693665,702.391663 621.853027,726.048096 
	C623.681519,727.181580 625.668762,728.058960 628.778748,729.679077 
	C616.980164,708.371887 611.106323,686.829407 607.940674,663.528931 
M693.998596,528.425049 
	C692.344910,527.240784 690.691223,526.056519 688.723450,524.647400 
	C688.468018,525.920715 688.294800,526.381714 688.294556,526.842896 
	C688.276733,557.675415 688.259277,588.507874 688.311340,619.340332 
	C688.313721,620.765198 688.581055,622.439209 689.349731,623.574036 
	C695.974365,633.354553 702.413330,643.290894 709.604248,652.645386 
	C713.319519,657.478699 718.445862,661.227356 723.880981,666.359497 
	C728.223694,632.185547 727.351379,600.157532 717.289429,568.778870 
	C712.521118,553.908691 706.254150,539.835449 693.998596,528.425049 
M629.233398,644.229126 
	C630.493530,654.125427 631.229065,664.123535 633.124756,673.896545 
	C636.889832,693.306885 642.972595,711.911987 655.616821,727.639954 
	C658.123962,730.758545 661.281555,733.354370 665.159424,737.204163 
	C665.159424,733.726135 665.159424,731.942688 665.159424,730.159302 
	C665.159424,701.511353 664.384521,672.832886 665.508240,644.229065 
	C666.018738,631.236206 661.440430,622.291260 652.114075,614.621460 
	C645.831177,609.454529 639.178406,604.991699 629.793640,602.863831 
	C629.578064,616.760742 629.372314,630.020386 629.233398,644.229126 
M706.173889,718.682129 
	C709.904480,710.183655 713.565308,701.653503 717.402710,693.203613 
	C718.788025,690.153198 717.922302,688.630249 715.148743,686.859436 
	C709.707214,683.385437 704.476135,679.530640 699.453735,675.467834 
	C695.558105,672.316467 692.112000,668.609497 688.538330,665.218018 
	C688.538330,688.950623 688.538330,712.809143 688.538330,737.461060 
	C696.554688,732.908020 701.317383,726.242126 706.173889,718.682129 
M635.877380,576.234314 
	C636.107788,577.586060 635.914124,579.807373 636.632874,580.157837 
	C646.075317,584.763306 655.646545,589.104736 664.755554,593.313660 
	C664.755554,571.657288 664.755554,549.025146 664.755554,526.393066 
	C664.049255,525.820251 663.342957,525.247375 662.636597,524.674500 
	C660.496582,527.637329 658.501465,530.718750 656.191467,533.542603 
	C646.085266,545.896851 640.311462,560.307129 635.877380,576.234314 
M749.175110,713.674255 
	C753.960632,708.797058 758.746216,703.919861 764.118164,698.445007 
	C755.285767,697.863098 747.918030,697.377625 741.049622,696.925049 
	C736.730347,707.421753 732.595032,717.471252 728.459778,727.520691 
	C728.662292,727.790833 728.864746,728.060974 729.067261,728.331116 
	C735.580933,723.587036 742.094666,718.843018 749.175110,713.674255 
z"/>
<path fill="#0D2672" opacity="1.000000" stroke="none" 
	d="
M889.327637,659.687622 
	C874.469055,627.043030 859.793884,594.730286 844.927917,561.997375 
	C853.911743,561.997375 862.385498,561.811340 870.834839,562.181580 
	C872.232483,562.242920 874.106323,564.498962 874.777710,566.142151 
	C887.837524,598.106995 900.749817,630.132202 913.700378,662.141663 
	C914.300049,663.623840 914.976013,665.075134 916.073303,667.586365 
	C917.771301,663.730835 919.086121,660.803711 920.353943,657.856323 
	C925.212524,646.560242 930.183167,635.309021 934.784912,623.908997 
	C935.587708,621.920288 935.525818,618.978271 934.654297,617.012512 
	C927.048889,599.858215 919.164734,582.827515 911.377930,565.753540 
	C910.908081,564.723267 910.562622,563.636353 909.939758,561.998718 
	C918.936646,561.998718 927.519348,561.837769 936.083008,562.169128 
	C937.393677,562.219910 939.144531,564.317566 939.801086,565.850037 
	C950.979126,591.943787 962.012451,618.099548 973.087830,644.237305 
	C975.515442,649.966492 977.981812,655.679260 980.946838,662.606262 
	C984.980347,653.159668 988.523193,644.838440 992.084961,636.525208 
	C1002.218567,612.873474 1012.412964,589.247498 1022.426025,565.544800 
	C1023.584167,562.803284 1024.945679,561.841003 1027.903442,561.922974 
	C1035.723022,562.139832 1043.552734,561.996521 1052.085571,561.996521 
	C1048.046631,570.936707 1044.201904,579.488647 1040.323242,588.025085 
	C1024.602905,622.622131 1008.818359,657.190186 993.226990,691.845215 
	C991.635986,695.381531 989.849304,697.368286 985.854309,696.526367 
	C985.694763,696.492798 985.515381,696.491760 985.356323,696.526428 
	C973.866577,699.037415 968.317932,693.661133 964.585449,683.051086 
	C960.362244,671.046326 954.219360,659.716858 948.490295,647.171814 
	C944.128418,656.694763 940.094543,665.455322 936.101868,674.234619 
	C933.354187,680.276428 930.571106,686.305054 927.988098,692.417358 
	C926.760864,695.321533 925.050598,696.184753 921.763672,696.723877 
	C909.905029,698.668884 903.071106,694.529846 899.641541,682.728149 
	C897.350281,674.843140 892.961243,667.567688 889.327637,659.687622 
z"/>
<path fill="#0D2672" opacity="1.000000" stroke="none" 
	d="
M1858.003296,690.853516 
	C1858.003296,693.155212 1858.003296,694.977295 1858.003296,697.057251 
	C1849.989502,697.057251 1842.227783,697.057251 1834.146606,697.057251 
	C1834.146606,691.602356 1834.146606,686.185242 1834.146606,680.768188 
	C1833.644531,680.363953 1833.142456,679.959656 1832.640381,679.555420 
	C1832.452026,680.337952 1832.439209,681.223267 1832.049927,681.888245 
	C1817.438232,706.845276 1781.802124,706.034119 1764.317627,685.984070 
	C1752.483765,672.413696 1749.457886,656.208923 1750.539673,638.932678 
	C1751.424683,624.798401 1755.745239,611.992737 1765.920288,601.512634 
	C1783.318237,583.592896 1817.175659,583.028320 1831.515869,606.329224 
	C1831.762573,606.730042 1832.163452,607.035889 1833.283936,608.228699 
	C1833.283936,592.797180 1833.283936,578.209717 1833.283936,563.348511 
	C1841.778809,563.348511 1849.523926,563.348511 1858.003296,563.348511 
	C1858.003296,605.619629 1858.003296,647.996704 1858.003296,690.853516 
M1795.928955,679.932495 
	C1808.870850,683.556580 1820.168945,679.974182 1826.930908,670.102417 
	C1835.706055,657.291687 1835.887329,632.688538 1827.302979,619.613953 
	C1816.697998,603.461792 1793.064819,603.293396 1782.930420,619.766846 
	C1774.321045,633.761169 1774.739624,648.906128 1780.069824,663.979919 
	C1782.671997,671.339111 1787.723633,676.760254 1795.928955,679.932495 
M1833.425537,608.870117 
	C1833.540039,608.750122 1833.741333,608.632690 1833.744873,608.509460 
	C1833.748535,608.385864 1833.555298,608.256470 1833.448486,608.129578 
	C1833.333984,608.249512 1833.219360,608.369507 1833.425537,608.870117 
z"/>
<path fill="#0E2773" opacity="1.000000" stroke="none" 
	d="
M1135.716309,646.000122 
	C1135.716309,653.829163 1135.706055,661.158142 1135.719116,668.487183 
	C1135.733032,676.298523 1136.382935,676.956543 1144.228760,677.296753 
	C1144.875610,677.324768 1145.517944,677.456543 1146.493896,677.583130 
	C1146.493896,683.909119 1146.493896,690.159302 1146.493896,697.451172 
	C1138.768677,697.105835 1130.792358,697.474304 1123.086304,696.203674 
	C1115.173096,694.898926 1112.529663,690.033447 1111.692261,678.381592 
	C1110.400513,680.468262 1109.506470,681.915405 1108.609619,683.360657 
	C1096.718994,702.520813 1064.354614,706.853699 1047.880859,691.435913 
	C1037.641235,681.852600 1035.940674,669.801819 1039.091064,656.971802 
	C1042.151978,644.505798 1051.351196,637.560913 1063.335083,635.270081 
	C1072.400513,633.537231 1081.843262,633.753296 1091.122681,633.178040 
	C1094.111206,632.992798 1097.136353,633.258240 1100.106445,632.949280 
	C1105.028076,632.437317 1109.156616,630.462830 1110.735107,625.305420 
	C1112.269775,620.290894 1110.280273,614.794678 1105.994873,611.506653 
	C1097.977417,605.355225 1079.773926,606.263000 1072.952881,613.706909 
	C1070.173950,616.739563 1068.717896,620.984436 1066.218262,625.470703 
	C1059.168823,625.470703 1050.935791,625.470703 1042.681885,625.470703 
	C1041.078125,615.635498 1048.026001,601.447266 1058.765015,595.804749 
	C1078.715210,585.322449 1099.352295,585.074707 1119.643188,594.888062 
	C1128.964233,599.395996 1133.953491,607.894897 1134.916138,618.064148 
	C1135.776489,627.153259 1135.494385,636.350525 1135.716309,646.000122 
M1068.259155,655.748230 
	C1063.790894,660.281555 1063.064331,665.649170 1065.072754,671.426697 
	C1067.174683,677.473083 1072.049927,680.479492 1078.013916,680.781067 
	C1082.897705,681.028076 1088.104004,680.652832 1092.729614,679.179565 
	C1107.017334,674.628845 1114.289062,658.635193 1110.327515,641.529846 
	C1106.902832,646.926575 1101.751587,649.324036 1095.758301,650.007141 
	C1091.134521,650.534119 1086.384644,650.245300 1081.842529,651.113403 
	C1077.392700,651.963867 1073.134888,653.818237 1068.259155,655.748230 
z"/>
<path fill="#0D2672" opacity="1.000000" stroke="none" 
	d="
M1287.028931,680.554016 
	C1294.629028,678.517029 1299.711304,674.141846 1303.067017,667.502930 
	C1303.651855,666.345520 1305.365479,665.077454 1306.594971,665.038696 
	C1313.902100,664.808472 1321.220215,664.924927 1329.147095,664.924927 
	C1327.115845,674.494263 1322.780884,682.356018 1315.551392,688.202942 
	C1297.844238,702.523743 1277.817993,704.281555 1257.282349,696.266479 
	C1237.489136,688.541199 1228.706665,671.959290 1227.284424,651.696655 
	C1226.643799,642.570190 1227.309082,632.899292 1229.692139,624.101196 
	C1235.947021,601.008179 1256.865479,586.958069 1281.111572,588.483521 
	C1287.040161,588.856567 1293.138794,589.551086 1298.751831,591.361450 
	C1317.736694,597.484497 1327.420776,611.473694 1329.901123,630.736694 
	C1330.746460,637.302551 1330.628906,643.992432 1330.979492,651.203979 
	C1304.753540,651.203979 1279.046265,651.203979 1253.410156,651.203979 
	C1251.160400,670.414551 1266.117310,683.417603 1287.028931,680.554016 
M1253.992920,627.725098 
	C1253.602173,629.659485 1253.211426,631.593811 1252.774292,633.757812 
	C1270.679565,633.757812 1288.233643,633.757812 1305.781494,633.757812 
	C1306.116821,618.916809 1296.855103,608.689880 1282.529175,607.834167 
	C1268.088989,606.971558 1259.509277,612.743286 1253.992920,627.725098 
z"/>
<path fill="#0D2672" opacity="1.000000" stroke="none" 
	d="
M1732.504272,613.491699 
	C1738.541260,625.589783 1738.465454,638.184082 1738.016724,651.366699 
	C1712.072876,651.366699 1686.334839,651.366699 1660.212036,651.366699 
	C1661.320923,663.752808 1664.588257,674.016052 1676.656860,679.416565 
	C1688.347290,684.647766 1705.121582,679.855591 1710.191040,668.136108 
	C1711.275635,665.628540 1712.626831,664.763428 1715.366333,664.849670 
	C1722.340454,665.069336 1729.326172,664.922668 1736.707520,664.922668 
	C1734.798584,674.768677 1729.904541,682.398804 1722.781860,688.670898 
	C1702.214478,706.781677 1664.265381,704.298828 1646.889160,683.213074 
	C1634.131348,667.732056 1632.345215,649.348267 1635.619507,630.298706 
	C1638.096680,615.886292 1645.230347,604.168152 1657.797363,596.223083 
	C1676.385254,584.471497 1705.016479,585.790833 1721.551025,599.663025 
	C1725.872192,603.288391 1728.758545,608.623901 1732.504272,613.491699 
M1688.500000,633.999268 
	C1696.802124,633.999268 1705.104126,633.999268 1713.402832,633.999268 
	C1713.244995,617.118835 1703.042603,607.247925 1686.686523,607.720093 
	C1671.714966,608.152283 1660.585449,619.434509 1661.078125,633.999268 
	C1669.876343,633.999268 1678.688110,633.999268 1688.500000,633.999268 
z"/>
<path fill="#0F2873" opacity="1.000000" stroke="none" 
	d="
M1593.062012,661.000000 
	C1593.062012,651.505005 1593.100220,642.509827 1593.038574,633.515259 
	C1593.020386,630.858643 1592.963989,628.161255 1592.507690,625.555725 
	C1590.668457,615.054199 1585.273926,609.154419 1576.757080,608.049194 
	C1565.684692,606.612244 1555.979736,611.239746 1552.101440,620.825745 
	C1550.160034,625.624756 1549.076050,631.081177 1548.986450,636.264099 
	C1548.638306,656.403931 1548.844727,676.553345 1548.844727,697.012817 
	C1540.688110,697.012817 1532.769897,697.012817 1524.501709,697.012817 
	C1524.501709,652.616028 1524.501709,608.243347 1524.501709,563.062195 
	C1528.228271,563.062195 1532.136963,563.062195 1536.045532,563.062195 
	C1540.037720,563.062195 1544.029907,563.062195 1548.576050,563.062195 
	C1548.576050,577.385986 1548.576050,591.525513 1548.576050,605.665039 
	C1554.549927,597.812744 1561.417480,592.010925 1570.891235,589.589355 
	C1594.089355,583.659729 1615.611694,597.758484 1616.798584,621.574768 
	C1618.046021,646.606750 1617.077881,671.749084 1617.077881,697.085327 
	C1609.316040,697.085327 1601.383057,697.085327 1593.062012,697.085327 
	C1593.062012,685.089417 1593.062012,673.294739 1593.062012,661.000000 
z"/>
<path fill="#0E2672" opacity="1.000000" stroke="none" 
	d="
M1455.049194,652.525757 
	C1447.686035,651.540588 1440.373901,651.729370 1434.019165,649.355469 
	C1413.003906,641.504578 1409.394409,613.926270 1426.926636,598.556274 
	C1443.546143,583.986450 1479.861328,585.216614 1495.381104,600.869507 
	C1502.046875,607.592529 1505.042480,615.807739 1505.431519,625.540405 
	C1497.254150,625.540405 1489.195801,625.540405 1480.963257,625.540405 
	C1480.910645,625.481567 1480.556030,625.268372 1480.498047,624.992859 
	C1477.274536,609.664490 1463.882568,603.074890 1449.551392,609.783264 
	C1443.551758,612.591614 1440.764526,617.645630 1441.768188,623.895569 
	C1442.620483,629.203796 1446.504028,632.589417 1453.208130,633.041504 
	C1460.677124,633.545227 1468.204102,633.239685 1475.663330,633.825928 
	C1493.034058,635.191040 1504.510620,644.585388 1506.843994,658.905029 
	C1509.566406,675.613647 1501.894165,689.987671 1485.452393,696.359009 
	C1468.177246,703.053223 1450.549927,702.993347 1433.546875,694.953857 
	C1420.972778,689.008484 1412.848755,674.801392 1414.466431,662.507446 
	C1422.392944,662.507446 1430.353638,662.507446 1438.681641,662.507446 
	C1438.998169,663.555237 1439.451904,664.753723 1439.719727,665.992371 
	C1441.757080,675.415100 1447.307007,680.595215 1456.958252,681.008118 
	C1461.693237,681.210693 1466.687378,680.853821 1471.199951,679.518677 
	C1478.641968,677.316711 1482.104492,670.818909 1481.017334,663.123230 
	C1480.207520,657.390686 1475.528564,653.605713 1468.018311,652.957153 
	C1463.876953,652.599365 1459.699829,652.656006 1455.049194,652.525757 
z"/>
<path fill="#0E2672" opacity="1.000000" stroke="none" 
	d="
M1151.093750,611.525757 
	C1148.151001,611.525696 1145.691406,611.525696 1143.095703,611.525696 
	C1143.095703,604.683167 1143.095703,598.388611 1143.095703,591.728577 
	C1149.721313,591.728577 1156.179688,591.728577 1163.074707,591.728577 
	C1163.074707,582.105957 1163.074707,572.831848 1163.074707,563.190430 
	C1171.562866,563.190430 1179.621338,563.190430 1187.992432,563.190430 
	C1187.992432,572.452209 1187.992432,581.750244 1187.992432,591.511963 
	C1198.681396,591.511963 1209.078979,591.511963 1219.774048,591.511963 
	C1219.774048,598.346191 1219.774048,604.714539 1219.774048,611.403992 
	C1209.288696,611.403992 1198.992798,611.403992 1188.362305,611.403992 
	C1188.226685,612.951294 1188.021362,614.213501 1188.019775,615.475891 
	C1187.997925,631.803040 1187.980103,648.130310 1188.015015,664.457397 
	C1188.034912,673.772705 1191.644409,677.555420 1200.905762,677.782410 
	C1207.370605,677.940918 1213.842529,677.812988 1220.494751,677.812988 
	C1220.494751,684.532410 1220.494751,690.789917 1220.494751,698.257507 
	C1207.527710,697.646912 1194.660156,698.057861 1182.139771,696.168518 
	C1169.345093,694.237854 1163.053711,683.756836 1163.167114,669.007019 
	C1163.305542,651.015381 1163.256836,633.022400 1163.279419,615.029968 
	C1163.280640,614.055969 1163.193481,613.081909 1163.120117,611.525818 
	C1159.117554,611.525818 1155.347168,611.525818 1151.093750,611.525757 
z"/>
<path fill="#0D2672" opacity="1.000000" stroke="none" 
	d="
M1371.519409,594.563538 
	C1371.521484,598.623413 1371.521484,602.242126 1371.521484,605.860901 
	C1371.816895,606.256042 1372.112183,606.651245 1372.407593,607.046387 
	C1379.963623,591.103210 1393.535645,590.802612 1407.898926,591.992920 
	C1407.898926,598.385986 1407.898926,604.674988 1407.898926,611.522217 
	C1403.828735,611.522217 1399.873779,611.516113 1395.918701,611.523254 
	C1378.903564,611.553833 1372.084229,618.332520 1372.019653,635.502380 
	C1371.948730,654.312683 1372.003418,673.123413 1372.003296,691.933960 
	C1372.003296,693.585083 1372.003296,695.236206 1372.003296,697.066162 
	C1363.793579,697.066162 1355.875732,697.066162 1347.718506,697.066162 
	C1347.718506,661.945312 1347.718506,627.077393 1347.718506,591.691711 
	C1355.034180,591.691711 1362.149048,591.617371 1369.257568,591.798340 
	C1370.030029,591.818115 1370.764893,593.312195 1371.519409,594.563538 
z"/>
<path fill="#FDF9F3" opacity="1.000000" stroke="none" 
	d="
M742.085693,571.010315 
	C737.648132,558.466309 733.284485,546.325745 728.905457,534.142395 
	C729.567810,534.463684 730.804443,534.975891 731.956909,535.635193 
	C772.541077,558.852173 794.266357,606.842224 784.796509,652.322266 
	C781.146240,669.852966 763.932434,679.265625 746.146729,673.259277 
	C751.438599,639.093506 750.968384,605.081421 742.085693,571.010315 
z"/>
<path fill="#FDF9F3" opacity="1.000000" stroke="none" 
	d="
M607.980042,663.974609 
	C611.106323,686.829407 616.980164,708.371887 628.778748,729.679077 
	C625.668762,728.058960 623.681519,727.181580 621.853027,726.048096 
	C583.693665,702.391663 565.459473,668.092285 567.041016,623.243652 
	C567.075562,622.264893 567.109802,621.188110 567.517456,620.335449 
	C573.614990,607.580872 592.880859,597.504150 607.673340,599.481323 
	C605.283264,620.822510 605.069275,642.189941 607.980042,663.974609 
z"/>
<path fill="#FBF8F3" opacity="1.000000" stroke="none" 
	d="
M694.273926,528.658813 
	C706.254150,539.835449 712.521118,553.908691 717.289429,568.778870 
	C727.351379,600.157532 728.223694,632.185547 723.880981,666.359497 
	C718.445862,661.227356 713.319519,657.478699 709.604248,652.645386 
	C702.413330,643.290894 695.974365,633.354553 689.349731,623.574036 
	C688.581055,622.439209 688.313721,620.765198 688.311340,619.340332 
	C688.259277,588.507874 688.276733,557.675415 688.294556,526.842896 
	C688.294800,526.381714 688.468018,525.920715 688.723450,524.647400 
	C690.691223,526.056519 692.344910,527.240784 694.273926,528.658813 
z"/>
<path fill="#FDF9F3" opacity="1.000000" stroke="none" 
	d="
M629.200012,643.754578 
	C629.372314,630.020386 629.578064,616.760742 629.793640,602.863831 
	C639.178406,604.991699 645.831177,609.454529 652.114075,614.621460 
	C661.440430,622.291260 666.018738,631.236206 665.508240,644.229065 
	C664.384521,672.832886 665.159424,701.511353 665.159424,730.159302 
	C665.159424,731.942688 665.159424,733.726135 665.159424,737.204163 
	C661.281555,733.354370 658.123962,730.758545 655.616821,727.639954 
	C642.972595,711.911987 636.889832,693.306885 633.124756,673.896545 
	C631.229065,664.123535 630.493530,654.125427 629.200012,643.754578 
z"/>
<path fill="#F8F6F3" opacity="1.000000" stroke="none" 
	d="
M705.992065,718.997070 
	C701.317383,726.242126 696.554688,732.908020 688.538330,737.461060 
	C688.538330,712.809143 688.538330,688.950623 688.538330,665.218018 
	C692.112000,668.609497 695.558105,672.316467 699.453735,675.467834 
	C704.476135,679.530640 709.707214,683.385437 715.148743,686.859436 
	C717.922302,688.630249 718.788025,690.153198 717.402710,693.203613 
	C713.565308,701.653503 709.904480,710.183655 705.992065,718.997070 
z"/>
<path fill="#FDF9F3" opacity="1.000000" stroke="none" 
	d="
M635.959167,575.843445 
	C640.311462,560.307129 646.085266,545.896851 656.191467,533.542603 
	C658.501465,530.718750 660.496582,527.637329 662.636597,524.674500 
	C663.342957,525.247375 664.049255,525.820251 664.755554,526.393066 
	C664.755554,549.025146 664.755554,571.657288 664.755554,593.313660 
	C655.646545,589.104736 646.075317,584.763306 636.632874,580.157837 
	C635.914124,579.807373 636.107788,577.586060 635.959167,575.843445 
z"/>
<path fill="#F8F6F3" opacity="1.000000" stroke="none" 
	d="
M627.965332,532.974792 
	C622.249512,547.094116 616.533691,561.213440 610.954468,574.995361 
	C600.980286,576.395264 590.352905,577.886780 580.113403,579.323914 
	C582.261597,567.192017 608.767273,540.508423 627.682495,532.907593 
	C628.016968,533.016174 627.965271,532.974792 627.965332,532.974792 
z"/>
<path fill="#F8F6F3" opacity="1.000000" stroke="none" 
	d="
M748.891724,713.886597 
	C742.094666,718.843018 735.580933,723.587036 729.067261,728.331116 
	C728.864746,728.060974 728.662292,727.790833 728.459778,727.520691 
	C732.595032,717.471252 736.730347,707.421753 741.049622,696.925049 
	C747.918030,697.377625 755.285767,697.863098 764.118164,698.445007 
	C758.746216,703.919861 753.960632,708.797058 748.891724,713.886597 
z"/>
<path fill="#F8F6F3" opacity="1.000000" stroke="none" 
	d="
M628.042969,533.036743 
	C628.128235,532.805176 628.187500,532.553101 628.246765,532.300964 
	C628.306763,532.492798 628.366699,532.684631 628.195923,532.925659 
	C627.965271,532.974792 628.016968,533.016174 628.042969,533.036743 
z"/>
<path fill="#FDF9F2" opacity="1.000000" stroke="none" 
	d="
M1795.547852,679.801819 
	C1787.723633,676.760254 1782.671997,671.339111 1780.069824,663.979919 
	C1774.739624,648.906128 1774.321045,633.761169 1782.930420,619.766846 
	C1793.064819,603.293396 1816.697998,603.461792 1827.302979,619.613953 
	C1835.887329,632.688538 1835.706055,657.291687 1826.930908,670.102417 
	C1820.168945,679.974182 1808.870850,683.556580 1795.547852,679.801819 
z"/>
<path fill="#FFFBF3" opacity="1.000000" stroke="none" 
	d="
M1833.265137,608.679810 
	C1833.219360,608.369507 1833.333984,608.249512 1833.448486,608.129639 
	C1833.555298,608.256470 1833.748535,608.385864 1833.744873,608.509460 
	C1833.741333,608.632690 1833.540039,608.750122 1833.265137,608.679810 
z"/>
<path fill="#FDF9F2" opacity="1.000000" stroke="none" 
	d="
M1068.525879,655.490112 
	C1073.134888,653.818237 1077.392700,651.963867 1081.842529,651.113403 
	C1086.384644,650.245300 1091.134521,650.534119 1095.758301,650.007141 
	C1101.751587,649.324036 1106.902832,646.926575 1110.327515,641.529846 
	C1114.289062,658.635193 1107.017334,674.628845 1092.729614,679.179565 
	C1088.104004,680.652832 1082.897705,681.028076 1078.013916,680.781067 
	C1072.049927,680.479492 1067.174683,677.473083 1065.072754,671.426697 
	C1063.064331,665.649170 1063.790894,660.281555 1068.525879,655.490112 
z"/>
<path fill="#FDF9F2" opacity="1.000000" stroke="none" 
	d="
M1254.068359,627.327209 
	C1259.509277,612.743286 1268.088989,606.971558 1282.529175,607.834167 
	C1296.855103,608.689880 1306.116821,618.916809 1305.781494,633.757812 
	C1288.233643,633.757812 1270.679565,633.757812 1252.774292,633.757812 
	C1253.211426,631.593811 1253.602173,629.659485 1254.068359,627.327209 
z"/>
<path fill="#FDF9F2" opacity="1.000000" stroke="none" 
	d="
M1688.000000,633.999268 
	C1678.688110,633.999268 1669.876343,633.999268 1661.078125,633.999268 
	C1660.585449,619.434509 1671.714966,608.152283 1686.686523,607.720093 
	C1703.042603,607.247925 1713.244995,617.118835 1713.402832,633.999268 
	C1705.104126,633.999268 1696.802124,633.999268 1688.000000,633.999268 
z"/>
</svg>